{"title":"Warcraft (2016) 1080p Blu-ray x264 Hindi-English AC3 5.1 MSub -D","uid":15802272,"size":3672105392,"categoryP":"video","categoryS":"hd___movies","magnet":"?xt=urn:btih:cbbb5d9c3bc88b816acc6d02fd7f9b640868f002&amp;dn=Warcraft+%282016%29+1080p+Blu-ray+x264+Hindi-English+AC3+5.1+MSub+-D&amp;tr=udp%3A%2F%2Ftracker.leechers-paradise.org%3A6969&amp;tr=udp%3A%2F%2Fzer0day.ch%3A1337&amp;tr=udp%3A%2F%2Fopen.demonii.com%3A1337&amp;tr=udp%3A%2F%2Ftracker.coppersurfer.tk%3A6969&amp;tr=udp%3A%2F%2Fexodus.desync.com%3A6969","seeders":42,"leechers":37,"uploader":"SaM","files":3,"time":1473521218,"description":"\n1080p Blu-ray Rip x264\r\n\r\n\r\n\r\nHindi AC3 5.1 Audio\r\n\r\nEnglish AC3 5.1 Audio\r\n\r\n\r\n\r\n\r\nEnglish &amp; Hindi Subtitles \r\n \nhttp://extraimago.com/image/wigh \nhttp://extraimago.com/image/wigd \nhttp://extraimago.com/image/wigI \nhttp://extraimago.com/image/wigl \nhttp://extraimago.com/image/wigm \nhttp://extraimago.com/image/wigR \nhttp://extraimago.com/image/wigQ \nhttp://extraimago.com/image/wigL \nhttp://extraimago.com/image/wigy \nhttp://extraimago.com/image/wigq \nhttp://extraimago.com/image/wigS \nhttp://extraimago.com/image/wigO \nhttp://extraimago.com/image/wigE \nhttp://extraimago.com/image/wigc\r\n\r\nSpecs:\r\nSource: BD50 @ IPT\r\n\r\nFormat : Matroska\r\nFile size : 3.40 GiB\r\nDuration : 2 h 3 min\r\nOverall bit rate : 3 951 kb/s\r\n\r\nVideo\r\nFormat : AVC\r\nFormat/Info : Advanced Video Codec\r\nFormat profile :   \r\nFormat settings, CABAC : Yes\r\nFormat settings, ReFrames : 5 frames\r\nCodec ID : V_MPEG4/ISO/AVC\r\nDuration : 2 h 3 min\r\nBit rate : 2 660 kb/s\r\nWidth : 1 912 pixels\r\nHeight : 792 pixels\r\nDisplay aspect ratio : 2.40:1\r\nFrame rate mode : Constant\r\nFrame rate : 23.976 (24000/1001) FPS\r\nColor space : YUV\r\nChroma subsampling : 4:2:0\r\nBit depth : 8 bits\r\nScan type : Progressive\r\nBits/(Pixel*Frame) : 0.073\r\nStream size : 2.29 GiB (67%)\r\n\r\nAudio #1\r\nID : 2\r\nFormat : AC-3\r\nFormat/Info : Audio Coding 3\r\nMode extension : CM (complete main)\r\nFormat settings, Endianness : Big\r\nCodec ID : A_AC3\r\nDuration : 2 h 3 min\r\nBit rate mode : Constant\r\nBit rate : 640 kb/s\r\nChannel(s) : 6 channels\r\nChannel positions : Front: L C R, Side: L R, LFE\r\nSampling rate : 48.0 kHz\r\nFrame rate : 31.250 FPS (1536 spf)\r\nCompression mode : Lossy\r\nStream size : 564 MiB (16%)\r\nLanguage : Hindi\r\nDefault : Yes\r\nForced : No\r\n\r\nAudio #2\r\nID : 3\r\nFormat : AC-3\r\nFormat/Info : Audio Coding 3\r\nMode extension : CM (complete main)\r\nFormat settings, Endianness : Big\r\nCodec ID : A_AC3\r\nDuration : 2 h 3 min\r\nBit rate mode : Constant\r\nBit rate : 640 kb/s\r\nChannel(s) : 6 channels\r\nChannel positions : Front: L C R, Side: L R, LFE\r\nSampling rate : 48.0 kHz\r\nFrame rate : 31.250 FPS (1536 spf)\r\nCompression mode : Lossy\r\nStream size : 564 MiB (16%)\r\nLanguage : English\r\nDefault : No\r\nForced : No\r\n\r\nChapters = YES\r\n\r\nSAMPLE Included","torrent":{"xt":"urn:btih:cbbb5d9c3bc88b816acc6d02fd7f9b640868f002","amp;dn":"Warcraft+%282016%29+1080p+Blu-ray+x264+Hindi-English+AC3+5.1+MSub+-D","amp;tr":["udp%3A%2F%2Ftracker.leechers-paradise.org%3A6969","udp%3A%2F%2Fzer0day.ch%3A1337","udp%3A%2F%2Fopen.demonii.com%3A1337","udp%3A%2F%2Ftracker.coppersurfer.tk%3A6969","udp%3A%2F%2Fexodus.desync.com%3A6969"],"infoHash":"cbbb5d9c3bc88b816acc6d02fd7f9b640868f002","infoHashBuffer":{"type":"Buffer","data":[203,187,93,156,59,200,139,129,106,204,109,2,253,127,155,100,8,104,240,2]},"announce":[],"urlList":[]}}